HIERARCHY
ROOT joint_Root
{
	OFFSET 0.0 0.0 0.0
	CHANNELS 6 Xposition Yposition Zposition Zrotation Xrotation Yrotation 
	JOINT Hips
	{
		OFFSET 4.5925 91.4895 -427.239
		CHANNELS 6 Xposition Yposition Zposition Zrotation Xrotation Yrotation 
		JOINT Spine
		{
			OFFSET 15.7357 0.0 0.0
			CHANNELS 6 Xposition Yposition Zposition Zrotation Xrotation Yrotation 
			JOINT Chest
			{
				OFFSET 8.98455 -0.406207 0.0
				CHANNELS 6 Xposition Yposition Zposition Zrotation Xrotation Yrotation 
				JOINT Neck
				{
					OFFSET 16.3773 0.0 0.0
					CHANNELS 6 Xposition Yposition Zposition Zrotation Xrotation Yrotation 
					JOINT Head
					{
						OFFSET 6.45672 0.0 0.0
						CHANNELS 6 Xposition Yposition Zposition Zrotation Xrotation Yrotation 
						End Site
						{
							OFFSET 0.0 0.0 0.0
						}
					}
				}
				JOINT Shoulder_L
				{
					OFFSET 12.9942 -0.242716 4.98039
					CHANNELS 6 Xposition Yposition Zposition Zrotation Xrotation Yrotation 
					JOINT UpperArm_L
					{
						OFFSET 5.34809 0.0 0.0
						CHANNELS 6 Xposition Yposition Zposition Zrotation Xrotation Yrotation 
						JOINT LowerArm_L
						{
							OFFSET 24.3286 1.87007e-05 0.0
							CHANNELS 6 Xposition Yposition Zposition Zrotation Xrotation Yrotation 
							JOINT Hand_L
							{
								OFFSET 22.2916 0.0 0.0
								CHANNELS 6 Xposition Yposition Zposition Zrotation Xrotation Yrotation 
								End Site
								{
									OFFSET 0.0 0.0 0.0
								}
							}
						}
					}
				}
				JOINT Shoulder_R
				{
					OFFSET 12.9945 -0.242716 -4.98039
					CHANNELS 6 Xposition Yposition Zposition Zrotation Xrotation Yrotation 
					JOINT UpperArm_R
					{
						OFFSET -5.34813 0.0 0.0
						CHANNELS 6 Xposition Yposition Zposition Zrotation Xrotation Yrotation 
						JOINT LowerArm_R
						{
							OFFSET -24.3289 0.000322201 0.0
							CHANNELS 6 Xposition Yposition Zposition Zrotation Xrotation Yrotation 
							JOINT Hand_R
							{
								OFFSET -22.2915 -0.000108084 0.0
								CHANNELS 6 Xposition Yposition Zposition Zrotation Xrotation Yrotation 
								End Site
								{
									OFFSET 0.0 0.0 0.0
								}
							}
						}
					}
				}
			}
		}
		JOINT UpperLeg_L
		{
			OFFSET -2.19248 -6.46944 0.0
			CHANNELS 6 Xposition Yposition Zposition Zrotation Xrotation Yrotation 
			JOINT LowerLeg_L
			{
				OFFSET 39.0811 0.0 -1.23785e-05
				CHANNELS 6 Xposition Yposition Zposition Zrotation Xrotation Yrotation 
				JOINT Foot_L
				{
					OFFSET 40.9854 0.0 -1.26872e-05
					CHANNELS 6 Xposition Yposition Zposition Zrotation Xrotation Yrotation 
					JOINT Toes_L
					{
						OFFSET 11.7543 0.0 0.0
						CHANNELS 6 Xposition Yposition Zposition Zrotation Xrotation Yrotation 
						End Site
						{
							OFFSET 0.0 0.0 0.0
						}
					}
				}
			}
		}
		JOINT UpperLeg_R
		{
			OFFSET -2.19251 6.46944 0.0
			CHANNELS 6 Xposition Yposition Zposition Zrotation Xrotation Yrotation 
			JOINT LowerLeg_R
			{
				OFFSET -39.0811 -0.00228153 -0.0401928
				CHANNELS 6 Xposition Yposition Zposition Zrotation Xrotation Yrotation 
				JOINT Foot_R
				{
					OFFSET -40.9854 0.0 0.0
					CHANNELS 6 Xposition Yposition Zposition Zrotation Xrotation Yrotation 
					JOINT Toes_R
					{
						OFFSET -11.7543 0.0 0.0
						CHANNELS 6 Xposition Yposition Zposition Zrotation Xrotation Yrotation 
						End Site
						{
							OFFSET 0.0 0.0 0.0
						}
					}
				}
			}
		}
	}
}
MOTION
Frames:	4
Frame Time:	0.0333333
0.000000 0.000000 0.000000 0.000000 0.000000 -0.000000 97.230700 90.265500 186.775000 -90.391200 43.384600 179.907000 15.735700 0.000005 -0.000001 93.142900 81.028600 -92.050100 8.984550 -0.406207 -0.000000 10.142200 0.999998 2.095430 16.377300 -0.000001 -0.000001 1.465230 6.608950 -0.397661 6.456720 -0.000001 -0.000000 -2.792040 10.973800 -4.446100 12.994200 -0.242716 4.980390 -91.379300 4.718730 -73.685900 5.348090 -0.000007 -0.000001 -67.522900 25.604800 -12.073700 24.328600 0.000019 0.000005 12.566900 19.994900 -33.101800 22.291600 -0.000001 0.000005 15.386900 5.225500 2.071720 12.994500 -0.242716 -4.980390 88.776000 8.723240 -81.981000 -5.348130 -0.000001 -0.000004 -56.457900 29.633800 -15.049800 -24.328900 0.000322 -0.000009 1.882460 3.252490 -30.097700 -22.291500 -0.000108 -0.000004 18.345200 5.419520 -3.582940 -2.192480 -6.469440 -0.000000 -174.077000 0.825984 -17.399900 39.081100 -0.000007 -0.000012 0.082424 -0.061464 53.286100 40.985400 -0.000006 -0.000013 1.102880 0.576848 -65.355700 11.754300 -0.000000 0.000003 -0.000503 -0.008075 -16.905500 -2.192510 6.469440 -0.000001 176.402000 27.035700 162.891000 -39.081100 -0.002282 -0.040193 -0.175729 0.258773 34.675900 -40.985400 0.000008 0.000006 0.598964 9.681510 -67.173800 -11.754300 -0.000006 -0.000006 -0.001680 -0.024638 -17.575000
0.000000 0.000000 0.000000 0.000000 0.000000 -0.000000 98.583500 90.533600 186.415000 -90.936200 41.068900 179.909000 15.735700 0.000005 -0.000001 93.819700 81.108700 -92.695900 8.984550 -0.406207 -0.000000 9.967880 1.198770 2.141510 16.377300 -0.000001 -0.000001 1.120340 6.107290 -0.177021 6.456720 -0.000001 -0.000000 -3.101250 10.068500 -4.367020 12.994200 -0.242716 4.980390 -91.363900 4.700820 -73.800900 5.348090 -0.000007 -0.000001 -68.446400 26.034600 -10.322800 24.328600 0.000019 0.000005 12.377600 20.950900 -31.539400 22.291600 -0.000001 0.000005 14.916200 5.231120 1.926450 12.994500 -0.242716 -4.980390 88.842700 8.528050 -82.242600 -5.348130 -0.000001 -0.000004 -55.563800 28.591300 -16.113100 -24.328900 0.000322 -0.000009 2.022640 3.476360 -30.230900 -22.291500 -0.000108 -0.000004 18.599500 5.420620 -3.619780 -2.192480 -6.469440 -0.000000 -175.514000 -1.791800 -19.233800 39.081100 -0.000007 -0.000012 0.074024 -0.058117 51.862300 40.985400 -0.000006 -0.000013 1.242750 0.147174 -65.873100 11.754300 -0.000000 0.000003 -0.000448 -0.007222 -16.870800 -2.192510 6.469440 -0.000001 176.131000 28.885300 164.394000 -39.081100 -0.002282 -0.040193 -0.184339 0.282479 33.593800 -40.985400 0.000008 0.000006 0.561741 9.130500 -67.844200 -11.754300 -0.000006 -0.000006 -0.001115 -0.017025 -17.265500
0.000000 0.000000 0.000000 0.000000 0.000000 -0.000000 99.826300 90.789000 186.047000 -91.239300 38.621000 179.634000 15.735700 0.000005 -0.000001 94.824400 81.197900 -93.649100 8.984550 -0.406207 -0.000000 9.763970 1.492070 2.221580 16.377300 -0.000001 -0.000001 0.726806 5.423910 0.063308 6.456720 -0.000001 -0.000000 -3.445160 9.012510 -4.261010 12.994200 -0.242716 4.980390 -91.305100 4.517690 -73.868300 5.348090 -0.000007 -0.000001 -69.391000 26.151700 -9.077100 24.328600 0.000019 0.000005 12.243100 22.200900 -29.868000 22.291600 -0.000001 0.000005 14.164600 5.233460 1.865960 12.994500 -0.242716 -4.980390 88.901400 8.269940 -82.406200 -5.348130 -0.000001 -0.000004 -55.089700 27.091700 -16.754700 -24.328900 0.000322 -0.000009 2.138790 3.644870 -30.445500 -22.291500 -0.000108 -0.000004 18.845500 5.420800 -3.626000 -2.192480 -6.469440 -0.000000 -177.109000 -4.061400 -20.556200 39.081100 -0.000007 -0.000012 0.059545 -0.053686 47.959900 40.985400 -0.000006 -0.000013 0.734615 1.786300 -66.096100 11.754300 -0.000000 0.000003 -0.000679 -0.010746 -17.014000 -2.192510 6.469440 -0.000001 176.069000 31.025800 165.860000 -39.081100 -0.002282 -0.040193 -0.181695 0.292890 32.277000 -40.985400 0.000008 0.000006 0.521713 8.789240 -68.336700 -11.754300 -0.000006 -0.000006 -0.001006 -0.015492 -17.203200
0.000000 0.000000 0.000000 0.000000 0.000000 -0.000000 100.972000 91.007200 185.646000 -91.525400 36.163600 179.263000 15.735700 0.000005 -0.000001 96.063000 81.272800 -94.866600 8.984550 -0.406207 -0.000000 9.576190 1.851680 2.236090 16.377300 -0.000001 -0.000001 0.230000 4.703660 0.272632 6.456720 -0.000001 -0.000000 -3.801720 7.920270 -4.123890 12.994200 -0.242716 4.980390 -91.271300 4.418910 -73.932700 5.348090 -0.000007 -0.000001 -70.002600 26.036800 -8.103380 24.328600 0.000019 0.000005 12.092900 23.140600 -28.598600 22.291600 -0.000001 0.000005 13.439700 5.232500 1.890690 12.994500 -0.242716 -4.980390 88.952100 8.107340 -82.610200 -5.348130 -0.000001 -0.000004 -54.604300 25.460700 -17.092800 -24.328900 0.000322 -0.000009 2.016680 3.393730 -30.759000 -22.291500 -0.000108 -0.000004 19.056600 5.423670 -3.723130 -2.192480 -6.469440 -0.000000 -179.156000 -6.249400 -21.461500 39.081100 -0.000007 -0.000012 0.041825 -0.046157 42.179900 40.985400 -0.000006 -0.000013 0.235538 3.838080 -65.537100 11.754300 -0.000000 0.000003 -0.000658 -0.010422 -17.000800 -2.192510 6.469440 -0.000001 176.089000 33.319800 167.118000 -39.081100 -0.002282 -0.040193 -0.161791 0.274328 31.039700 -40.985400 0.000008 0.000006 0.847148 8.434650 -68.852400 -11.754300 -0.000006 -0.000006 -0.000918 -0.014236 -17.152100
